<?xml version="1.0" encoding="UTF-8" standalone="no"?>
<!-- Created with Inkscape (http://www.inkscape.org/) -->

<svg
   version="1.1"
   id="svg1"
   width="242"
   height="157"
   viewBox="0 0 242 157"
   xmlns="http://www.w3.org/2000/svg"
   xmlns:svg="http://www.w3.org/2000/svg">
  <defs
     id="defs1" />
  <g
     id="g1">
    <path
       style="fill:#646464"
       d="m 34.241729,51.297135 c 5.483334,-9.318984 18.684483,-6.830146 25.151774,-15.009105 5.963725,-5.544217 2.451459,12.709103 -2.56686,13.529418 -6.895169,3.037367 -15.378249,2.999248 -22.584914,1.479687 z"
       id="path116" />
    <path
       style="fill:#646464"
       d="M 79.83446,133.95824 C 73.692436,111.31616 75.143362,87.335562 78.394992,64.341296 79.40878,53.2288 89.457574,46.536281 99.160326,43.292859 123.19109,34.793842 147.9377,28.451835 172.24173,20.770439 191.81628,15.015724 211.22383,8.5441903 231.03096,3.6641344 226.24425,12.39539 220.6598,21.135289 213.51913,28.153362 c -9.43301,6.128165 -20.98152,7.915205 -31.4285,11.847177 -27.58479,9.126436 -55.79216,16.45316 -82.940583,26.840843 -11.153006,5.057717 -10.868774,18.885832 -12.247547,29.22948 -1.329424,13.912798 -3.162978,27.815498 -4.177262,41.723118 -1.103241,1.58234 -2.412654,-3.4486 -2.890778,-3.83574 z"
       id="path115" />
    <path
       style="fill:#646464"
       d="m 91.911278,111.25329 c 0.03677,-10.59809 1.85785,-21.310394 5.439122,-31.325762 5.17434,-8.696088 16.27653,-9.314829 24.77309,-12.851529 28.99493,-8.944686 58.0774,-17.601558 87.11824,-26.395202 -6.08812,9.004633 -10.14368,20.455966 -20.37159,25.710081 -24.49724,8.376849 -50.11271,13.050624 -74.52788,21.64011 -8.19168,4.300113 -9.46849,14.499282 -10.2097,22.775252 -1.80536,14.04665 -2.0259,28.32826 -5.275569,42.16525 -14.580792,-6.57046 -6.994624,-27.6208 -6.945713,-41.7182 z"
       id="path114" />
    <path
       style="fill:#646464"
       d="M 81.682044,151.70573 C 72.741902,147.20413 63.328279,140.65595 60.861149,130.34432 58.743001,119.4927 57.507308,108.48902 56.136017,97.517677 55.087096,91.461183 54.620553,85.108367 52.021794,79.475315 48.614333,73.401879 41.353985,70.173036 34.578434,70.374254 c -1.889963,3.391606 2.315816,7.296321 3.244486,10.741943 2.522908,7.96924 3.046353,16.43517 4.24812,24.680513 1.39142,10.45392 2.579475,21.12184 6.312516,31.04111 1.489333,1.95823 5.479093,8.24093 0.246309,5.02115 -7.674241,-2.39554 -15.131411,-8.17747 -16.478482,-16.54442 -0.1298,-4.5408 -0.822784,-9.02237 -1.333085,-13.54951 C 29.514237,100.10771 29.026642,87.712337 22.870234,77.376347 18.614877,71.187195 11.318577,68.046234 4.2417288,66.357854 18.032577,61.006148 33.594126,58.016978 48.095338,62.226016 c 8.35842,2.62268 15.517081,9.825084 16.441525,18.774772 4.559251,18.726213 3.715565,38.632242 10.825742,56.740852 3.234312,6.596 9.274591,11.13615 13.330156,17.13349 -2.378033,-0.96283 -4.697973,-2.06101 -7.010717,-3.1694 z"
       id="path2" />
  </g>
</svg>
